<?xml version="1.0" encoding="UTF-8"?>
<!DOCTYPE svg PUBLIC "-//W3C//DTD SVG 1.1//EN" "http://www.w3.org/Graphics/SVG/1.1/DTD/svg11.dtd">
<svg version="1.1" id="Layer_1" xmlns="http://www.w3.org/2000/svg" xmlns:xlink="http://www.w3.org/1999/xlink" x="0px" y="0px" width="24px" height="24px" viewBox="0 0 24 24" enable-background="new 0 0 24 24" xml:space="preserve">
  <g id="icon">
    <path d="M16.1127,17.0379l-1.3473,-1.1742l0.0021,-1.0928l1.3514,-1.1662c0.2316,-0.1998,0.3092,-0.5255,0.1929,-0.8084l-0.4392,-1.0685c-0.1163,-0.2829,-0.4006,-0.4597,-0.7058,-0.4389l-1.7812,0.1216l-0.7703,-0.7746l0.133,-1.7842c0.0225,-0.3051,-0.1511,-0.594,-0.4334,-0.7119l-1.066,-0.445c-0.2823,-0.1178,-0.6099,-0.0381,-0.8109,0.1924L9.2637,9.2347l-1.0928,-0.0021L7.0047,7.8812c-0.1998,-0.2316,-0.5255,-0.3092,-0.8084,-0.1929l-1.0685,0.4392c-0.2829,0.1163,-0.4597,0.4006,-0.4389,0.7058l0.1216,1.7812l-0.7746,0.7703l-1.7842,-0.133c-0.3051,-0.0225,-0.594,0.1511,-0.7119,0.4334l-0.445,1.066c-0.1178,0.2823,-0.0381,0.6099,0.1924,0.8109l1.3473,1.1742l-0.0021,1.0928l-1.3515,1.1662c-0.2316,0.1998,-0.3092,0.5255,-0.1929,0.8084l0.4392,1.0685c0.1163,0.2829,0.4006,0.4597,0.7058,0.4389l1.7812,-0.1216l0.7703,0.7746l-0.133,1.7842c-0.0225,0.3051,0.1511,0.594,0.4334,0.7119l1.066,0.445c0.2823,0.1178,0.6099,0.0381,0.8109,-0.1924l1.1742,-1.3473l1.0928,0.0021l1.1662,1.3515c0.1998,0.2316,0.5255,0.3092,0.8084,0.1929l1.0685,-0.4392c0.2829,-0.1163,0.4597,-0.4006,0.4389,-0.7058l-0.1216,-1.7812l0.7746,-0.7703l1.7842,0.133c0.3051,0.0225,0.594,-0.1511,0.7119,-0.4334l0.445,-1.066C16.4229,17.5665,16.3432,17.239,16.1127,17.0379zM8.0836,16.7765c-0.8155,-0.3404,-1.2006,-1.2774,-0.8601,-2.0929c0.3404,-0.8155,1.2774,-1.2006,2.0929,-0.8601s1.2006,1.2774,0.8601,2.0929C9.8361,16.7318,8.8991,17.1169,8.0836,16.7765z" fill="#AAB2BD"/>
    <path d="M10.4931,11.0047c-2.3722,-0.9903,-5.0981,0.13,-6.0884,2.5022s0.13,5.0981,2.5022,6.0884s5.0981,-0.13,6.0884,-2.5022S12.8653,11.995,10.4931,11.0047zM7.5793,17.9846c-1.4826,-0.6189,-2.1828,-2.3226,-1.5639,-3.8052c0.6189,-1.4826,2.3226,-2.1828,3.8052,-1.5639c1.4826,0.6189,2.1828,2.3226,1.5639,3.8052C10.7656,17.9033,9.062,18.6035,7.5793,17.9846z" fill="#8E949C"/>
    <path d="M16.1127,17.0379l-1.3473,-1.1742l0.0021,-1.0928l1.3514,-1.1662c0.2316,-0.1998,0.3092,-0.5255,0.1929,-0.8084l-0.2197,-0.5344l-5.9122,2.4299c0.1557,0.3787,0.1668,0.8169,-0.0034,1.2246c-0.3404,0.8155,-1.2774,1.2006,-2.0929,0.8601c-0.4077,-0.1702,-0.7079,-0.4896,-0.8635,-0.8683l-5.9122,2.4299l0.2196,0.5341c0.1163,0.2829,0.4006,0.4597,0.7058,0.4389l1.7812,-0.1216l0.7703,0.7746l-0.133,1.7842c-0.0225,0.3051,0.1511,0.594,0.4334,0.7119l1.066,0.445c0.2823,0.1178,0.6099,0.0381,0.8109,-0.1924l1.1742,-1.3473l1.0928,0.0021l1.1662,1.3515c0.1998,0.2316,0.5255,0.3092,0.8084,0.1929l1.0685,-0.4392c0.2829,-0.1163,0.4597,-0.4006,0.4389,-0.7058l-0.1216,-1.7812l0.7746,-0.7703l1.7842,0.133c0.3051,0.0225,0.594,-0.1511,0.7119,-0.4334l0.445,-1.066C16.4229,17.5665,16.3432,17.239,16.1127,17.0379z" fill="#231F20" opacity="0.1"/>
    <path d="M22.6632,5.6394l-1.1658,-0.3881l-0.2881,-0.6939l0.5486,-1.0978c0.0941,-0.1881,0.057,-0.4153,-0.0917,-0.564l-0.5616,-0.5616c-0.1487,-0.1487,-0.3759,-0.1856,-0.564,-0.0915l-1.0978,0.5489l-0.6939,-0.2874l-0.3881,-1.1672c-0.0665,-0.1995,-0.2532,-0.3368,-0.4635,-0.3368h-0.7942c-0.2103,0,-0.397,0.1373,-0.4635,0.3368l-0.3881,1.1658l-0.6939,0.2881l-1.0978,-0.5486c-0.1881,-0.0941,-0.4153,-0.057,-0.564,0.0917l-0.5616,0.5616c-0.1487,0.1487,-0.1856,0.3759,-0.0915,0.564l0.5489,1.0978l-0.2874,0.6939l-1.1672,0.3881c-0.1995,0.0665,-0.3368,0.2532,-0.3368,0.4635v0.7942c0,0.2103,0.1373,0.397,0.3368,0.4635l1.1658,0.3881l0.2881,0.6939l-0.5486,1.0978c-0.0941,0.1881,-0.057,0.4153,0.0917,0.564l0.5616,0.5616c0.1487,0.1487,0.3759,0.1856,0.564,0.0915l1.0978,-0.5489l0.6939,0.2874l0.3881,1.1672c0.0665,0.1995,0.2532,0.3368,0.4635,0.3368h0.7942c0.2103,0,0.397,-0.1373,0.4635,-0.3368l0.3881,-1.1658l0.6939,-0.2881l1.0978,0.5486c0.1881,0.0941,0.4153,0.057,0.564,-0.0917l0.5616,-0.5616c0.1487,-0.1487,0.1856,-0.3759,0.0915,-0.564l-0.5489,-1.0978l0.2874,-0.6939l1.1672,-0.3881c0.1995,-0.0665,0.3368,-0.2532,0.3368,-0.4635v-0.7942C23,5.8926,22.8627,5.7059,22.6632,5.6394zM17.5,7.6c-0.6075,0,-1.1,-0.4925,-1.1,-1.1c0,-0.6075,0.4925,-1.1,1.1,-1.1s1.1,0.4925,1.1,1.1C18.6,7.1075,18.1075,7.6,17.5,7.6z" fill="#AAB2BD"/>
    <path d="M17.5,3.3c-1.7673,0,-3.2,1.4327,-3.2,3.2s1.4327,3.2,3.2,3.2s3.2,-1.4327,3.2,-3.2S19.2673,3.3,17.5,3.3zM17.5,8.5c-1.1046,0,-2,-0.8954,-2,-2c0,-1.1046,0.8954,-2,2,-2s2,0.8954,2,2C19.5,7.6046,18.6046,8.5,17.5,8.5z" fill="#8E949C"/>
    <path d="M22.6632,5.6394l-1.1658,-0.3881l-0.2881,-0.6939l0.5486,-1.0978c0.0941,-0.1881,0.057,-0.4153,-0.0917,-0.564l-0.2809,-0.2808l-3.1074,3.1074C18.4769,5.9212,18.6,6.1962,18.6,6.5c0,0.6075,-0.4925,1.1,-1.1,1.1c-0.3038,0,-0.5788,-0.1231,-0.7778,-0.3222l-3.1074,3.1074l0.2808,0.2807c0.1487,0.1487,0.3759,0.1856,0.564,0.0915l1.0978,-0.5489l0.6939,0.2874l0.3881,1.1672c0.0665,0.1995,0.2532,0.3368,0.4635,0.3368h0.7942c0.2103,0,0.397,-0.1373,0.4635,-0.3368l0.3881,-1.1658l0.6939,-0.2881l1.0978,0.5486c0.1881,0.0941,0.4153,0.057,0.564,-0.0917l0.5616,-0.5616c0.1487,-0.1487,0.1856,-0.3759,0.0915,-0.564l-0.5489,-1.0978l0.2874,-0.6939l1.1672,-0.3881c0.1995,-0.0665,0.3368,-0.2532,0.3368,-0.4635v-0.7942C23,5.8926,22.8627,5.7059,22.6632,5.6394z" fill="#231F20" opacity="0.1"/>
  </g>
</svg>
